<svg width="150" height="48" viewBox="0 0 150 48" fill="none" xmlns="http://www.w3.org/2000/svg">
<mask id="mask0" mask-type="alpha" maskUnits="userSpaceOnUse" x="0" y="2" width="19" height="22">
<path fill-rule="evenodd" clip-rule="evenodd" d="M0 2.5907H18.4666V23.4397H0V2.5907Z" fill="white"/>
</mask>
<g mask="url(#mask0)">
<path fill-rule="evenodd" clip-rule="evenodd" d="M12.063 7.4607C11.308 6.8357 10.206 6.5227 8.757 6.5227H4.825V13.7897H8.757C10.206 13.7897 11.308 13.4727 12.063 12.8367C12.817 12.2017 13.195 11.3087 13.195 10.1567C13.195 8.9847 12.817 8.0857 12.063 7.4607ZM13.284 23.4397L9.263 17.6317H9.025H4.825V23.4397H0V2.5907H9.025C10.872 2.5907 12.475 2.8987 13.835 3.5147C15.195 4.1297 16.243 5.0037 16.978 6.1357C17.712 7.2677 18.079 8.6077 18.079 10.1567C18.079 11.7057 17.707 13.0407 16.962 14.1627C16.218 15.2847 15.161 16.1437 13.791 16.7387L18.467 23.4397H13.284Z" fill="#343333"/>
</g>
<path fill-rule="evenodd" clip-rule="evenodd" d="M26.2991 11.5862C25.5841 12.1822 25.1471 12.9962 24.9881 14.0282H32.8821C32.7221 13.0162 32.2861 12.2072 31.5711 11.6012C30.8561 10.9952 29.9821 10.6922 28.9501 10.6922C27.8971 10.6922 27.0141 10.9902 26.2991 11.5862ZM37.1711 16.7382H25.0481C25.2661 17.7322 25.7821 18.5162 26.5971 19.0912C27.4111 19.6682 28.4241 19.9552 29.6351 19.9552C30.4691 19.9552 31.2081 19.8322 31.8541 19.5832C32.4991 19.3352 33.1001 18.9422 33.6561 18.4062L36.1281 21.0872C34.6191 22.8152 32.4151 23.6782 29.5161 23.6782C27.7091 23.6782 26.1101 23.3262 24.7201 22.6212C23.3301 21.9162 22.2581 20.9382 21.5041 19.6872C20.7491 18.4372 20.3721 17.0172 20.3721 15.4282C20.3721 13.8592 20.7441 12.4452 21.4891 11.1842C22.2341 9.92321 23.2561 8.94021 24.5571 8.23521C25.8571 7.53021 27.3121 7.17821 28.9201 7.17821C30.4881 7.17821 31.9081 7.51621 33.1791 8.19021C34.4501 8.86621 35.4471 9.83421 36.1731 11.0942C36.8971 12.3562 37.2601 13.8202 37.2601 15.4882C37.2601 15.5472 37.2301 15.9642 37.1711 16.7382Z" fill="#343333"/>
<path fill-rule="evenodd" clip-rule="evenodd" d="M43.499 22.6213C42.139 21.9163 41.077 20.9383 40.312 19.6873C39.548 18.4363 39.166 17.0173 39.166 15.4283C39.166 13.8403 39.548 12.4203 40.312 11.1693C41.077 9.9183 42.139 8.9403 43.499 8.2353C44.859 7.5303 46.393 7.1783 48.101 7.1783C49.789 7.1783 51.263 7.5303 52.524 8.2353C53.785 8.9403 54.703 9.9483 55.279 11.2583L51.675 13.1943C50.841 11.7253 49.64 10.9903 48.071 10.9903C46.86 10.9903 45.857 11.3873 45.063 12.1823C44.269 12.9763 43.872 14.0583 43.872 15.4283C43.872 16.7983 44.269 17.8803 45.063 18.6743C45.857 19.4693 46.86 19.8663 48.071 19.8663C49.659 19.8663 50.861 19.1313 51.675 17.6623L55.279 19.6273C54.703 20.8983 53.785 21.8913 52.524 22.6063C51.263 23.3213 49.789 23.6783 48.101 23.6783C46.393 23.6783 44.859 23.3263 43.499 22.6213Z" fill="#343333"/>
<path fill-rule="evenodd" clip-rule="evenodd" d="M73.6263 7.4162L66.3883 24.4232C65.6533 26.2702 64.7453 27.5702 63.6633 28.3252C62.5813 29.0792 61.2753 29.4572 59.7463 29.4572C58.9133 29.4572 58.0883 29.3272 57.2743 29.0692C56.4603 28.8112 55.7953 28.4542 55.2793 27.9972L56.9773 24.6912C57.3343 25.0082 57.7463 25.2572 58.2123 25.4362C58.6793 25.6142 59.1413 25.7042 59.5983 25.7042C60.2333 25.7042 60.7493 25.5492 61.1463 25.2422C61.5433 24.9342 61.9003 24.4232 62.2183 23.7082L62.2783 23.5592L55.3383 7.4162H60.1343L64.6313 18.2872L69.1583 7.4162H73.6263Z" fill="#343333"/>
<path fill-rule="evenodd" clip-rule="evenodd" d="M78.2276 22.6213C76.8676 21.9163 75.8046 20.9383 75.0396 19.6873C74.2766 18.4363 73.8936 17.0173 73.8936 15.4283C73.8936 13.8403 74.2766 12.4203 75.0396 11.1693C75.8046 9.9183 76.8676 8.9403 78.2276 8.2353C79.5866 7.5303 81.1216 7.1783 82.8296 7.1783C84.5166 7.1783 85.9916 7.5303 87.2516 8.2353C88.5126 8.9403 89.4306 9.9483 90.0066 11.2583L86.4036 13.1943C85.5696 11.7253 84.3676 10.9903 82.7986 10.9903C81.5876 10.9903 80.5846 11.3873 79.7906 12.1823C78.9976 12.9763 78.5996 14.0583 78.5996 15.4283C78.5996 16.7983 78.9976 17.8803 79.7906 18.6743C80.5846 19.4693 81.5876 19.8663 82.7986 19.8663C84.3876 19.8663 85.5886 19.1313 86.4036 17.6623L90.0066 19.6273C89.4306 20.8983 88.5126 21.8913 87.2516 22.6063C85.9916 23.3213 84.5166 23.6783 82.8296 23.6783C81.1216 23.6783 79.5866 23.3263 78.2276 22.6213Z" fill="#343333"/>
<mask id="mask1" mask-type="alpha" maskUnits="userSpaceOnUse" x="0" y="0" width="150" height="48">
<path fill-rule="evenodd" clip-rule="evenodd" d="M0 47.8803H149.377V0.000305176H0V47.8803Z" fill="white"/>
</mask>
<g mask="url(#mask1)">
<path fill-rule="evenodd" clip-rule="evenodd" d="M92.5684 23.4403H97.2144V1.3403H92.5684V23.4403Z" fill="#343333"/>
<path fill-rule="evenodd" clip-rule="evenodd" d="M101.533 23.4403H106.179V7.41631H101.533V23.4403ZM101.772 4.4373C101.235 3.9413 100.967 3.32631 100.967 2.59131C100.967 1.85631 101.235 1.24131 101.772 0.744305C102.308 0.248305 103.002 0.000305176 103.857 0.000305176C104.71 0.000305176 105.405 0.238305 105.942 0.714305C106.478 1.19131 106.745 1.78731 106.745 2.50131C106.745 3.27631 106.478 3.91631 105.942 4.42331C105.405 4.92931 104.71 5.18231 103.857 5.18231C103.002 5.18231 102.308 4.93431 101.772 4.4373Z" fill="#343333"/>
<path fill-rule="evenodd" clip-rule="evenodd" d="M125.048 8.9651C126.269 10.1561 126.88 11.9241 126.88 14.2671V23.4401H122.234V14.9821C122.234 13.7111 121.955 12.7621 121.4 12.1371C120.843 11.5111 120.039 11.1991 118.986 11.1991C117.815 11.1991 116.882 11.5611 116.187 12.2861C115.491 13.0111 115.145 14.0881 115.145 15.5171V23.4401H110.498V7.4161H114.936V9.2931C115.551 8.6181 116.316 8.0961 117.23 7.7291C118.143 7.3611 119.146 7.1781 120.237 7.1781C122.223 7.1781 123.826 7.7741 125.048 8.9651Z" fill="#343333"/>
<path fill-rule="evenodd" clip-rule="evenodd" d="M142.024 17.7663C142.808 17.0413 143.201 16.0933 143.201 14.9223C143.201 13.7503 142.808 12.8023 142.024 12.0773C141.24 11.3523 140.232 10.9903 139.002 10.9903C137.769 10.9903 136.756 11.3523 135.963 12.0773C135.169 12.8023 134.771 13.7503 134.771 14.9223C134.771 16.0933 135.169 17.0413 135.963 17.7663C136.756 18.4913 137.769 18.8533 139.002 18.8533C140.232 18.8533 141.24 18.4913 142.024 17.7663ZM147.788 7.4163V20.7593C147.788 23.6983 147.023 25.8823 145.494 27.3123C143.964 28.7423 141.731 29.4563 138.793 29.4563C137.244 29.4563 135.774 29.2673 134.384 28.8913C132.995 28.5133 131.842 27.9673 130.929 27.2523L132.776 23.9163C133.451 24.4723 134.305 24.9143 135.337 25.2423C136.37 25.5693 137.402 25.7333 138.435 25.7333C140.044 25.7333 141.23 25.3713 141.995 24.6463C142.758 23.9213 143.141 22.8253 143.141 21.3553V20.6703C141.929 22.0003 140.242 22.6653 138.078 22.6653C136.608 22.6653 135.263 22.3433 134.042 21.6973C132.821 21.0533 131.853 20.1443 131.138 18.9723C130.423 17.8013 130.066 16.4513 130.066 14.9223C130.066 13.3933 130.423 12.0423 131.138 10.8713C131.853 9.7003 132.821 8.7913 134.042 8.1463C135.263 7.5003 136.608 7.1783 138.078 7.1783C140.401 7.1783 142.168 7.9423 143.379 9.4713V7.4163H147.788Z" fill="#343333"/>
<path fill-rule="evenodd" clip-rule="evenodd" d="M70.7005 47.4944C69.7015 47.2374 68.9065 46.9134 68.3135 46.5234L69.5305 43.9024C70.0915 44.2614 70.7705 44.5534 71.5665 44.7794C72.3615 45.0064 73.1415 45.1194 73.9065 45.1194C75.4505 45.1194 76.2225 44.7364 76.2225 43.9724C76.2225 43.6134 76.0125 43.3564 75.5915 43.2004C75.1705 43.0444 74.5225 42.9114 73.6485 42.8024C72.6195 42.6464 71.7685 42.4664 71.0975 42.2644C70.4275 42.0614 69.8465 41.7024 69.3545 41.1874C68.8635 40.6724 68.6175 39.9394 68.6175 38.9874C68.6175 38.1924 68.8475 37.4864 69.3075 36.8694C69.7675 36.2534 70.4385 35.7734 71.3205 35.4304C72.2015 35.0874 73.2435 34.9154 74.4445 34.9154C75.3345 34.9154 76.2195 35.0134 77.1005 35.2084C77.9815 35.4034 78.7115 35.6724 79.2885 36.0154L78.0715 38.6134C76.9645 37.9894 75.7555 37.6774 74.4445 37.6774C73.6645 37.6774 73.0795 37.7864 72.6895 38.0044C72.2995 38.2234 72.1045 38.5044 72.1045 38.8474C72.1045 39.2374 72.3145 39.5104 72.7365 39.6664C73.1575 39.8224 73.8285 39.9704 74.7495 40.1114C75.7785 40.2834 76.6215 40.4664 77.2765 40.6614C77.9315 40.8564 78.5015 41.2104 78.9845 41.7254C79.4685 42.2404 79.7105 42.9584 79.7105 43.8784C79.7105 44.6594 79.4755 45.3524 79.0085 45.9614C78.5395 46.5694 77.8575 47.0414 76.9605 47.3774C76.0625 47.7124 74.9985 47.8804 73.7655 47.8804C72.7215 47.8804 71.6985 47.7514 70.7005 47.4944Z" fill="#70BF58"/>
<path fill-rule="evenodd" clip-rule="evenodd" d="M90.076 47.0847C89.718 47.3507 89.277 47.5487 88.755 47.6817C88.231 47.8137 87.681 47.8797 87.104 47.8797C85.606 47.8797 84.448 47.4987 83.63 46.7337C82.81 45.9697 82.4 44.8467 82.4 43.3637V38.1917H80.458V35.3837H82.4V32.3177H86.052V35.3837H89.187V38.1917H86.052V43.3167C86.052 43.8477 86.187 44.2567 86.461 44.5457C86.733 44.8347 87.12 44.9787 87.619 44.9787C88.196 44.9787 88.687 44.8227 89.094 44.5107L90.076 47.0847Z" fill="#70BF58"/>
<path fill-rule="evenodd" clip-rule="evenodd" d="M98.5944 44.99C99.0774 44.701 99.4214 44.277 99.6244 43.715V42.427H97.1194C95.6224 42.427 94.8734 42.919 94.8734 43.902C94.8734 44.37 95.0574 44.741 95.4234 45.013C95.7894 45.287 96.2924 45.423 96.9334 45.423C97.5574 45.423 98.1114 45.279 98.5944 44.99ZM101.706 36.308C102.751 37.237 103.275 38.636 103.275 40.509V47.693H99.8584V46.125C99.1714 47.295 97.8924 47.88 96.0204 47.88C95.0524 47.88 94.2144 47.717 93.5044 47.389C92.7944 47.061 92.2524 46.609 91.8784 46.032C91.5034 45.454 91.3174 44.799 91.3174 44.066C91.3174 42.896 91.7574 41.975 92.6384 41.304C93.5204 40.634 94.8814 40.298 96.7224 40.298H99.6244C99.6244 39.503 99.3824 38.89 98.8994 38.461C98.4144 38.032 97.6894 37.818 96.7224 37.818C96.0514 37.818 95.3924 37.923 94.7444 38.134C94.0974 38.344 93.5474 38.629 93.0954 38.988L91.7844 36.437C92.4714 35.953 93.2934 35.579 94.2534 35.313C95.2124 35.048 96.1994 34.916 97.2134 34.916C99.1634 34.916 100.661 35.38 101.706 36.308Z" fill="#70BF58"/>
<path fill-rule="evenodd" clip-rule="evenodd" d="M111.828 35.3835C112.569 35.0715 113.424 34.9155 114.391 34.9155V38.2855C113.985 38.2545 113.712 38.2385 113.572 38.2385C112.526 38.2385 111.707 38.5305 111.114 39.1165C110.521 39.7015 110.225 40.5785 110.225 41.7485V47.6935H106.575V35.1025H110.061V36.7645C110.498 36.1555 111.087 35.6955 111.828 35.3835Z" fill="#70BF58"/>
<path fill-rule="evenodd" clip-rule="evenodd" d="M125.133 47.0847C124.774 47.3507 124.333 47.5487 123.811 47.6817C123.287 47.8137 122.737 47.8797 122.16 47.8797C120.663 47.8797 119.504 47.4987 118.686 46.7337C117.866 45.9697 117.456 44.8467 117.456 43.3637V38.1917H115.515V35.3837H117.456V32.3177H121.108V35.3837H124.243V38.1917H121.108V43.3167C121.108 43.8477 121.244 44.2567 121.517 44.5457C121.789 44.8347 122.176 44.9787 122.675 44.9787C123.252 44.9787 123.744 44.8227 124.15 44.5107L125.133 47.0847Z" fill="#70BF58"/>
<path fill-rule="evenodd" clip-rule="evenodd" d="M130.514 38.3791C129.952 38.8471 129.609 39.4871 129.485 40.2981H135.686C135.561 39.5031 135.218 38.8671 134.657 38.3911C134.095 37.9151 133.408 37.6771 132.597 37.6771C131.77 37.6771 131.076 37.9111 130.514 38.3791ZM139.056 42.4271H129.532C129.702 43.2081 130.108 43.8241 130.748 44.2761C131.388 44.7291 132.183 44.9551 133.135 44.9551C133.79 44.9551 134.371 44.8581 134.878 44.6621C135.385 44.4671 135.858 44.1591 136.294 43.7381L138.237 45.8441C137.051 47.2021 135.319 47.8801 133.041 47.8801C131.621 47.8801 130.366 47.6041 129.274 47.0491C128.182 46.4961 127.339 45.7271 126.746 44.7441C126.154 43.7611 125.857 42.6461 125.857 41.3981C125.857 40.1661 126.15 39.0541 126.735 38.0631C127.32 37.0721 128.123 36.3001 129.145 35.7461C130.166 35.1931 131.31 34.9161 132.574 34.9161C133.806 34.9161 134.921 35.1811 135.92 35.7111C136.918 36.2421 137.702 37.0031 138.272 37.9931C138.841 38.9831 139.126 40.1341 139.126 41.4441C139.126 41.4911 139.103 41.8191 139.056 42.4271Z" fill="#70BF58"/>
<path fill-rule="evenodd" clip-rule="evenodd" d="M146.815 35.3835C147.555 35.0715 148.41 34.9155 149.378 34.9155V38.2855C148.971 38.2545 148.699 38.2385 148.558 38.2385C147.513 38.2385 146.694 38.5305 146.101 39.1165C145.508 39.7015 145.211 40.5785 145.211 41.7485V47.6935H141.561V35.1025H145.047V36.7645C145.485 36.1555 146.074 35.6955 146.815 35.3835Z" fill="#70BF58"/>
</g>
</svg>

